<mxfile host="app.diagrams.net" agent="Mozilla/5.0 (Macintosh; Intel Mac OS X 10_15_7) AppleWebKit/605.1.15 (KHTML, like Gecko) Version/17.6 Safari/605.1.15" version="25.0.1">
  <diagram name="Page-1" id="gcOh2L13ghurHqlArtQZ">
    <mxGraphModel dx="989" dy="570" grid="1" gridSize="10" guides="1" tooltips="1" connect="1" arrows="1" fold="1" page="1" pageScale="1" pageWidth="827" pageHeight="1169" background="#ffffff" math="0" shadow="0">
      <root>
        <mxCell id="0" />
        <mxCell id="1" parent="0" />
        <mxCell id="VRNMHvbQ2h5_KSJw3uvR-1" value="" style="ellipse;whiteSpace=wrap;html=1;aspect=fixed;" parent="1" vertex="1">
          <mxGeometry x="280" y="200" width="40" height="40" as="geometry" />
        </mxCell>
        <mxCell id="VRNMHvbQ2h5_KSJw3uvR-2" value="Receive an integer as n" style="rounded=1;whiteSpace=wrap;html=1;" parent="1" vertex="1">
          <mxGeometry x="230" y="280" width="140" height="50" as="geometry" />
        </mxCell>
        <mxCell id="uvgIFms-rv46Gu-G6dfy-2" style="edgeStyle=orthogonalEdgeStyle;rounded=0;orthogonalLoop=1;jettySize=auto;html=1;exitX=0.5;exitY=1;exitDx=0;exitDy=0;entryX=0.5;entryY=0;entryDx=0;entryDy=0;" edge="1" parent="1" source="VRNMHvbQ2h5_KSJw3uvR-3" target="uvgIFms-rv46Gu-G6dfy-4">
          <mxGeometry relative="1" as="geometry">
            <mxPoint x="300" y="448" as="targetPoint" />
          </mxGeometry>
        </mxCell>
        <mxCell id="VRNMHvbQ2h5_KSJw3uvR-3" value="Initialise the variables:&amp;nbsp;&lt;div&gt;even = 0&lt;div&gt;odd = 0&lt;/div&gt;&lt;div&gt;n = abs(n)&lt;/div&gt;&lt;/div&gt;" style="rounded=1;whiteSpace=wrap;html=1;fontSize=12;" parent="1" vertex="1">
          <mxGeometry x="230" y="360" width="140" height="60" as="geometry" />
        </mxCell>
        <mxCell id="VRNMHvbQ2h5_KSJw3uvR-4" value="Return a tuple (even, odd)" style="rounded=1;whiteSpace=wrap;html=1;" parent="1" vertex="1">
          <mxGeometry x="84" y="459" width="140" height="50" as="geometry" />
        </mxCell>
        <mxCell id="VRNMHvbQ2h5_KSJw3uvR-5" value="" style="ellipse;whiteSpace=wrap;html=1;aspect=fixed;strokeWidth=3;" parent="1" vertex="1">
          <mxGeometry x="4" y="464" width="40" height="40" as="geometry" />
        </mxCell>
        <mxCell id="VRNMHvbQ2h5_KSJw3uvR-6" value="" style="endArrow=classic;html=1;rounded=0;exitX=0.5;exitY=1;exitDx=0;exitDy=0;entryX=0.5;entryY=0;entryDx=0;entryDy=0;" parent="1" source="VRNMHvbQ2h5_KSJw3uvR-1" target="VRNMHvbQ2h5_KSJw3uvR-2" edge="1">
          <mxGeometry width="50" height="50" relative="1" as="geometry">
            <mxPoint x="390" y="450" as="sourcePoint" />
            <mxPoint x="440" y="400" as="targetPoint" />
          </mxGeometry>
        </mxCell>
        <mxCell id="VRNMHvbQ2h5_KSJw3uvR-7" value="" style="endArrow=classic;html=1;rounded=0;exitX=0.5;exitY=1;exitDx=0;exitDy=0;entryX=0.5;entryY=0;entryDx=0;entryDy=0;" parent="1" source="VRNMHvbQ2h5_KSJw3uvR-2" target="VRNMHvbQ2h5_KSJw3uvR-3" edge="1">
          <mxGeometry width="50" height="50" relative="1" as="geometry">
            <mxPoint x="310" y="250" as="sourcePoint" />
            <mxPoint x="310" y="290" as="targetPoint" />
          </mxGeometry>
        </mxCell>
        <mxCell id="VRNMHvbQ2h5_KSJw3uvR-8" value="" style="endArrow=classic;html=1;rounded=0;exitX=0;exitY=0.5;exitDx=0;exitDy=0;entryX=1;entryY=0.5;entryDx=0;entryDy=0;" parent="1" source="uvgIFms-rv46Gu-G6dfy-4" target="VRNMHvbQ2h5_KSJw3uvR-4" edge="1">
          <mxGeometry width="50" height="50" relative="1" as="geometry">
            <mxPoint x="190" y="429" as="sourcePoint" />
            <mxPoint x="200" y="389" as="targetPoint" />
          </mxGeometry>
        </mxCell>
        <mxCell id="uvgIFms-rv46Gu-G6dfy-6" value="No" style="edgeLabel;html=1;align=center;verticalAlign=middle;resizable=0;points=[];" vertex="1" connectable="0" parent="VRNMHvbQ2h5_KSJw3uvR-8">
          <mxGeometry x="-0.3714" relative="1" as="geometry">
            <mxPoint x="-2" as="offset" />
          </mxGeometry>
        </mxCell>
        <mxCell id="VRNMHvbQ2h5_KSJw3uvR-9" value="" style="endArrow=classic;html=1;rounded=0;exitX=0;exitY=0.5;exitDx=0;exitDy=0;entryX=1;entryY=0.5;entryDx=0;entryDy=0;" parent="1" source="VRNMHvbQ2h5_KSJw3uvR-4" target="VRNMHvbQ2h5_KSJw3uvR-5" edge="1">
          <mxGeometry width="50" height="50" relative="1" as="geometry">
            <mxPoint x="164" y="439" as="sourcePoint" />
            <mxPoint x="164" y="469" as="targetPoint" />
          </mxGeometry>
        </mxCell>
        <mxCell id="uvgIFms-rv46Gu-G6dfy-10" style="edgeStyle=orthogonalEdgeStyle;rounded=0;orthogonalLoop=1;jettySize=auto;html=1;exitX=0.5;exitY=1;exitDx=0;exitDy=0;entryX=0.5;entryY=0;entryDx=0;entryDy=0;" edge="1" parent="1" source="uvgIFms-rv46Gu-G6dfy-3" target="uvgIFms-rv46Gu-G6dfy-9">
          <mxGeometry relative="1" as="geometry" />
        </mxCell>
        <mxCell id="uvgIFms-rv46Gu-G6dfy-3" value="d = n % 10" style="rounded=1;whiteSpace=wrap;html=1;fontSize=12;" vertex="1" parent="1">
          <mxGeometry x="370" y="459" width="140" height="50" as="geometry" />
        </mxCell>
        <mxCell id="uvgIFms-rv46Gu-G6dfy-7" style="edgeStyle=orthogonalEdgeStyle;rounded=0;orthogonalLoop=1;jettySize=auto;html=1;exitX=1;exitY=0.5;exitDx=0;exitDy=0;entryX=0;entryY=0.5;entryDx=0;entryDy=0;" edge="1" parent="1" source="uvgIFms-rv46Gu-G6dfy-4" target="uvgIFms-rv46Gu-G6dfy-3">
          <mxGeometry relative="1" as="geometry" />
        </mxCell>
        <mxCell id="uvgIFms-rv46Gu-G6dfy-8" value="Yes" style="edgeLabel;html=1;align=center;verticalAlign=middle;resizable=0;points=[];" vertex="1" connectable="0" parent="uvgIFms-rv46Gu-G6dfy-7">
          <mxGeometry x="0.0095" y="-2" relative="1" as="geometry">
            <mxPoint x="-5" y="-2" as="offset" />
          </mxGeometry>
        </mxCell>
        <mxCell id="uvgIFms-rv46Gu-G6dfy-4" value="n &amp;gt; 0" style="rhombus;whiteSpace=wrap;html=1;" vertex="1" parent="1">
          <mxGeometry x="275" y="459" width="50" height="50" as="geometry" />
        </mxCell>
        <mxCell id="uvgIFms-rv46Gu-G6dfy-13" style="edgeStyle=orthogonalEdgeStyle;rounded=0;orthogonalLoop=1;jettySize=auto;html=1;exitX=0;exitY=0.5;exitDx=0;exitDy=0;entryX=1;entryY=0.5;entryDx=0;entryDy=0;" edge="1" parent="1" source="uvgIFms-rv46Gu-G6dfy-9" target="uvgIFms-rv46Gu-G6dfy-11">
          <mxGeometry relative="1" as="geometry" />
        </mxCell>
        <mxCell id="uvgIFms-rv46Gu-G6dfy-19" value="No" style="edgeLabel;html=1;align=center;verticalAlign=middle;resizable=0;points=[];" vertex="1" connectable="0" parent="uvgIFms-rv46Gu-G6dfy-13">
          <mxGeometry x="-0.4593" y="1" relative="1" as="geometry">
            <mxPoint x="-4" as="offset" />
          </mxGeometry>
        </mxCell>
        <mxCell id="uvgIFms-rv46Gu-G6dfy-14" style="edgeStyle=orthogonalEdgeStyle;rounded=0;orthogonalLoop=1;jettySize=auto;html=1;exitX=1;exitY=0.5;exitDx=0;exitDy=0;entryX=0;entryY=0.5;entryDx=0;entryDy=0;" edge="1" parent="1" source="uvgIFms-rv46Gu-G6dfy-9" target="uvgIFms-rv46Gu-G6dfy-12">
          <mxGeometry relative="1" as="geometry" />
        </mxCell>
        <mxCell id="uvgIFms-rv46Gu-G6dfy-20" value="Yes" style="edgeLabel;html=1;align=center;verticalAlign=middle;resizable=0;points=[];" vertex="1" connectable="0" parent="uvgIFms-rv46Gu-G6dfy-14">
          <mxGeometry x="-0.189" relative="1" as="geometry">
            <mxPoint x="-2" as="offset" />
          </mxGeometry>
        </mxCell>
        <mxCell id="uvgIFms-rv46Gu-G6dfy-9" value="d%2==0" style="rhombus;whiteSpace=wrap;html=1;fontSize=10;" vertex="1" parent="1">
          <mxGeometry x="415" y="540" width="50" height="50" as="geometry" />
        </mxCell>
        <mxCell id="uvgIFms-rv46Gu-G6dfy-16" style="edgeStyle=orthogonalEdgeStyle;rounded=0;orthogonalLoop=1;jettySize=auto;html=1;exitX=0.5;exitY=1;exitDx=0;exitDy=0;entryX=0;entryY=0.5;entryDx=0;entryDy=0;" edge="1" parent="1" source="uvgIFms-rv46Gu-G6dfy-11" target="uvgIFms-rv46Gu-G6dfy-15">
          <mxGeometry relative="1" as="geometry" />
        </mxCell>
        <mxCell id="uvgIFms-rv46Gu-G6dfy-11" value="Increase odd variable by 1" style="rounded=1;whiteSpace=wrap;html=1;fontSize=10;" vertex="1" parent="1">
          <mxGeometry x="240" y="540" width="140" height="50" as="geometry" />
        </mxCell>
        <mxCell id="uvgIFms-rv46Gu-G6dfy-17" style="edgeStyle=orthogonalEdgeStyle;rounded=0;orthogonalLoop=1;jettySize=auto;html=1;exitX=0.5;exitY=1;exitDx=0;exitDy=0;entryX=1;entryY=0.5;entryDx=0;entryDy=0;" edge="1" parent="1" source="uvgIFms-rv46Gu-G6dfy-12" target="uvgIFms-rv46Gu-G6dfy-15">
          <mxGeometry relative="1" as="geometry" />
        </mxCell>
        <mxCell id="uvgIFms-rv46Gu-G6dfy-12" value="Increase even variable by 1" style="rounded=1;whiteSpace=wrap;html=1;fontSize=10;" vertex="1" parent="1">
          <mxGeometry x="500" y="540" width="140" height="50" as="geometry" />
        </mxCell>
        <mxCell id="uvgIFms-rv46Gu-G6dfy-18" style="edgeStyle=orthogonalEdgeStyle;rounded=0;orthogonalLoop=1;jettySize=auto;html=1;exitX=0.5;exitY=1;exitDx=0;exitDy=0;" edge="1" parent="1" source="uvgIFms-rv46Gu-G6dfy-15">
          <mxGeometry relative="1" as="geometry">
            <mxPoint x="300" y="440" as="targetPoint" />
            <Array as="points">
              <mxPoint x="440" y="690" />
              <mxPoint x="670" y="690" />
              <mxPoint x="670" y="440" />
            </Array>
          </mxGeometry>
        </mxCell>
        <mxCell id="uvgIFms-rv46Gu-G6dfy-15" value="n //= 10" style="rounded=1;whiteSpace=wrap;html=1;fontSize=10;" vertex="1" parent="1">
          <mxGeometry x="370" y="620" width="140" height="50" as="geometry" />
        </mxCell>
      </root>
    </mxGraphModel>
  </diagram>
</mxfile>
